<svg width="40" height="40" viewBox="0 0 40 40" fill="none" xmlns="http://www.w3.org/2000/svg">
<path d="M29.3636 28.6187C18.357 33.8568 11.5262 29.4742 7.15363 26.8124C6.88306 26.6446 6.42317 26.8516 6.82218 27.3099C8.27892 29.0762 13.0529 33.3334 19.2844 33.3334C25.5202 33.3334 29.2299 29.931 29.694 29.3374C30.1549 28.7489 29.8293 28.4243 29.3635 28.6187H29.3636ZM32.4548 26.9116C32.1592 26.5268 30.6575 26.455 29.7124 26.5711C28.7659 26.6838 27.3451 27.2623 27.4686 27.6097C27.532 27.7398 27.6614 27.6814 28.3116 27.6229C28.9636 27.5579 30.7902 27.3274 31.1708 27.8249C31.5532 28.3259 30.5882 30.7124 30.412 31.0972C30.2417 31.4821 30.4771 31.5814 30.7969 31.325C31.1123 31.0688 31.6834 30.4052 32.0666 29.4661C32.4472 28.5219 32.6793 27.2047 32.4546 26.9116H32.4548Z" fill="#FF9900"/>
<path fill-rule="evenodd" clip-rule="evenodd" d="M21.9654 17.93C21.9654 19.3044 22.0001 20.4506 21.3055 21.6712C20.7448 22.6636 19.8566 23.2739 18.8643 23.2739C17.5096 23.2739 16.7207 22.2418 16.7207 20.7186C16.7207 17.7116 19.4149 17.1659 21.9654 17.1659V17.93ZM25.523 26.5289C25.2898 26.7373 24.9524 26.7522 24.6894 26.6132C23.5185 25.6408 23.31 25.1893 22.665 24.2613C20.7299 26.2362 19.3604 26.8266 16.8498 26.8266C13.8826 26.8266 11.5703 24.9957 11.5703 21.3288C11.5703 18.4659 13.1235 16.5158 15.3313 15.5632C17.2467 14.7196 19.9211 14.5708 21.9654 14.3376V13.8811C21.9654 13.0425 22.0298 12.0502 21.5387 11.3258C21.107 10.6757 20.2833 10.4078 19.5588 10.4078C18.2142 10.4078 17.0134 11.0975 16.7207 12.5265C16.6611 12.8441 16.428 13.1567 16.1104 13.1716L12.6867 12.8045C12.399 12.7398 12.0814 12.5067 12.1608 12.065C12.9497 7.91698 16.6958 6.6665 20.05 6.6665C21.7668 6.6665 24.0095 7.12304 25.3641 8.42309C27.081 10.0257 26.9172 12.1643 26.9172 14.4914V19.9892C26.9172 21.6415 27.6019 22.3659 28.2469 23.259C28.4751 23.5766 28.5248 23.9588 28.237 24.1968C27.5175 24.7971 26.2374 25.9136 25.5328 26.5389L25.5229 26.5289" fill="black"/>
<path d="M29.3636 28.6187C18.357 33.8568 11.5262 29.4742 7.15363 26.8124C6.88306 26.6446 6.42317 26.8516 6.82218 27.3099C8.27892 29.0762 13.0529 33.3334 19.2844 33.3334C25.5202 33.3334 29.2299 29.931 29.694 29.3374C30.1549 28.7489 29.8293 28.4243 29.3635 28.6187H29.3636ZM32.4548 26.9116C32.1592 26.5268 30.6575 26.455 29.7124 26.5711C28.7659 26.6838 27.3451 27.2623 27.4686 27.6097C27.532 27.7398 27.6614 27.6814 28.3116 27.6229C28.9636 27.5579 30.7902 27.3274 31.1708 27.8249C31.5532 28.3259 30.5882 30.7124 30.412 31.0972C30.2417 31.4821 30.4771 31.5814 30.7969 31.325C31.1123 31.0688 31.6834 30.4052 32.0666 29.4661C32.4472 28.5219 32.6793 27.2047 32.4546 26.9116H32.4548Z" fill="#FF9900"/>
<path fill-rule="evenodd" clip-rule="evenodd" d="M21.9654 17.93C21.9654 19.3044 22.0001 20.4506 21.3055 21.6712C20.7448 22.6636 19.8566 23.2739 18.8643 23.2739C17.5096 23.2739 16.7207 22.2418 16.7207 20.7186C16.7207 17.7116 19.4149 17.1659 21.9654 17.1659V17.93ZM25.523 26.5289C25.2898 26.7373 24.9524 26.7522 24.6894 26.6132C23.5185 25.6408 23.31 25.1893 22.665 24.2613C20.7299 26.2362 19.3604 26.8266 16.8498 26.8266C13.8826 26.8266 11.5703 24.9957 11.5703 21.3288C11.5703 18.4659 13.1235 16.5158 15.3313 15.5632C17.2467 14.7196 19.9211 14.5708 21.9654 14.3376V13.8811C21.9654 13.0425 22.0298 12.0502 21.5387 11.3258C21.107 10.6757 20.2833 10.4078 19.5588 10.4078C18.2142 10.4078 17.0134 11.0975 16.7207 12.5265C16.6611 12.8441 16.428 13.1567 16.1104 13.1716L12.6867 12.8045C12.399 12.7398 12.0814 12.5067 12.1608 12.065C12.9497 7.91698 16.6958 6.6665 20.05 6.6665C21.7668 6.6665 24.0095 7.12304 25.3641 8.42309C27.081 10.0257 26.9172 12.1643 26.9172 14.4914V19.9892C26.9172 21.6415 27.6019 22.3659 28.2469 23.259C28.4751 23.5766 28.5248 23.9588 28.237 24.1968C27.5175 24.7971 26.2374 25.9136 25.5328 26.5389L25.5229 26.5289" fill="black"/>
</svg>
