<svg width="40" height="40" viewBox="0 0 40 40" fill="none" xmlns="http://www.w3.org/2000/svg">
<path fill-rule="evenodd" clip-rule="evenodd" d="M20.1935 15.4069C20.8599 15.4069 21.4089 15.0641 21.483 14.6216L22.141 7.26493C22.141 6.53786 21.2792 5.94092 20.1954 5.94092C19.1129 5.94092 18.2518 6.53786 18.2518 7.26493L18.9095 14.6216C18.9819 15.0641 19.5306 15.4069 20.1954 15.4069H20.1935ZM16.1703 17.7045C16.5048 17.1347 16.4796 16.4943 16.127 16.2094L10.0088 11.9679C9.37274 11.604 8.41903 12.042 7.87748 12.9699C7.33463 13.8965 7.43071 14.9315 8.06511 15.2956L14.8397 18.413C15.2632 18.5684 15.8407 18.2698 16.1726 17.7003L16.1703 17.7045ZM24.2199 17.7007C24.5537 18.2701 25.1283 18.5687 25.5521 18.4137L32.327 15.2959C32.9653 14.9321 33.0562 13.8968 32.5179 12.9702C31.9741 12.0433 31.0184 11.6043 30.384 11.9685L24.2655 16.2101C23.9154 16.4943 23.8896 17.135 24.2221 17.7051L24.2195 17.7007H24.2199ZM20.1935 24.5963C20.8599 24.5963 21.4089 24.9362 21.483 25.379L22.141 32.7348C22.141 33.4641 21.2792 34.0597 20.1954 34.0597C19.1129 34.0597 18.2518 33.4641 18.2518 32.7348L18.9095 25.379C18.9819 24.9362 19.5306 24.5963 20.1954 24.5963H20.1935ZM24.2199 22.2981C24.5537 21.7267 25.1283 21.431 25.5521 21.5876L32.327 24.7031C32.9653 25.0676 33.0562 26.1035 32.5179 27.0311C31.9741 27.9551 31.0184 28.3954 30.384 28.0318L24.2655 23.7941C23.9154 23.5076 23.8896 22.8662 24.2221 22.2968H24.2195L24.2199 22.2981ZM16.1703 22.2971C16.5048 22.8662 16.4796 23.5076 16.127 23.7944L10.0088 28.0321C9.37274 28.3957 8.41903 27.9554 7.87748 27.0314C7.33463 26.1042 7.43071 25.0682 8.06511 24.7037L14.8397 21.5883C15.2632 21.4313 15.8407 21.7274 16.1726 22.2984H16.1703" fill="#FF9900"/>
</svg>
